<?xml version="1.0" standalone="no"?><!DOCTYPE svg PUBLIC "-//W3C//DTD SVG 1.1//EN" "http://www.w3.org/Graphics/SVG/1.1/DTD/svg11.dtd"><svg t="1721535194850" class="icon" viewBox="0 0 1024 1024" version="1.1" xmlns="http://www.w3.org/2000/svg" p-id="5684" xmlns:xlink="http://www.w3.org/1999/xlink" width="200" height="200"><path d="M478.386 226.509A138.196 138.196 0 0 1 604.63 308.75l46.402 105.53a176.245 176.245 0 0 0 73.874 82.242l51.756 29.462a35.138 35.138 0 0 1 11.747 50.176 35.372 35.372 0 0 1-45.788 11.556l-86.235-45.597a160.168 160.168 0 0 1-71.65-77.853l-3.395-8.163a12.902 12.902 0 0 0-11.966-7.768c-6.144 0-11.556 4.389-12.727 10.343l-9.567 47.396A251.553 251.553 0 0 0 570.78 671.35l155.706 297.282a36.923 36.923 0 0 1-12.142 47.791 36.747 36.747 0 0 1-50.76-9.947L461.46 709.545l-71.095-104.537a67.935 67.935 0 0 1-11.147-47.981l11.147-78.248 10.972-77.078c0.205-0.79 0.205-1.77 0.205-2.56 0-9.962-8.192-18.33-18.535-18.33-4.769 0-9.567 1.8-12.946 5.383l-34.64 34.626a122.675 122.675 0 0 0-34.26 65.507c-5.764 32.475-13.737 77.882-18.286 104.36a26.478 26.478 0 0 1-25.893 21.504 26.185 26.185 0 0 1-26.112-26.083V445.323a133.764 133.764 0 0 1 50.38-104.93l104.537-83.852a138.533 138.533 0 0 1 86.235-30.047h6.364z m-108.91 384.526l78.453 118.463a10.928 10.928 0 0 1 1.024 10.137c-5.588 13.649-11.645 27.063-18.14 40.463-19.324 40.609-41.033 80.033-65.916 117.467-23.903 37.844-52.165 72.88-81.042 106.935a36.79 36.79 0 0 1-51.58 4.184c-14.132-12.142-16.94-32.856-6.759-48.011l0.995-1.595c22.689-34.23 44.383-68.68 61.908-105.53a838.539 838.539 0 0 0 46.607-112.699 927.861 927.861 0 0 0 32.036-117.262c0.995-4.184 1.8-8.368 2.414-12.552zM558.667 3.423a97.646 97.646 0 1 1 0 195.292 97.646 97.646 0 0 1 0-195.292z" p-id="5685" fill="#1296db"></path></svg>